<svg viewBox="0 0 4071 1121" xmlns="http://www.w3.org/2000/svg" xmlns:xlink="http://www.w3.org/1999/xlink" data-v-c31713d4=""><clipPath id="a" data-v-c31713d4=""><path d="m45 0h3981v1121h-3981z" data-v-c31713d4=""></path></clipPath> <clipPath id="b" data-v-c31713d4=""><path d="m45 0h3981v1121h-3981z" data-v-c31713d4=""></path></clipPath> <clipPath id="c" data-v-c31713d4=""><path d="m45 0h3981v1121h-3981z" data-v-c31713d4=""></path></clipPath> <clipPath id="d" data-v-c31713d4=""><path d="m45 0h3981v1121h-3981z" data-v-c31713d4=""></path></clipPath> <clipPath id="e" data-v-c31713d4=""><path d="m45 0h3981v1121h-3981z" data-v-c31713d4=""></path></clipPath> <clipPath id="f" data-v-c31713d4=""><path d="m45 0h3981v1121h-3981z" data-v-c31713d4=""></path></clipPath> <clipPath id="g" data-v-c31713d4=""><path d="m45 0h3981v1121h-3981z" data-v-c31713d4=""></path></clipPath> <clipPath id="h" data-v-c31713d4=""><path d="m45 0h3981v1121h-3981z" data-v-c31713d4=""></path></clipPath> <clipPath id="i" data-v-c31713d4=""><path d="m45 0h3981v1121h-3981z" data-v-c31713d4=""></path></clipPath> <clipPath id="j" data-v-c31713d4=""><path d="m45 0h3981v1121h-3981z" data-v-c31713d4=""></path></clipPath> <clipPath id="k" data-v-c31713d4=""><path d="m45 0h3981v1121h-3981z" data-v-c31713d4=""></path></clipPath> <g fill="#eb0055" data-v-c31713d4=""><path clip-path="url(#a)" d="m1772.5 1108h-151.9l-237.1-602.7h170.4l142 405.1h1.2s79.1-230.7 105-299.3c13-34.3 31.8-70.6 101.9-70.6s90.8 0 90.8 0z" data-v-c31713d4=""></path> <path clip-path="url(#b)" d="m1218.6 806.7c0-98.8-66.7-166.7-156.9-166.7-93.9 0-156.9 71.6-156.9 166.7 0 93.9 65.5 166.7 156.9 166.7 87.8 0 156.9-69.2 156.9-166.7zm-476.7 0c0-180.3 128.4-311.2 319.9-311.2 187.7 0 321.1 126 321.1 311.2 0 185.3-133.4 311.2-321.1 311.2-191.5 0-319.9-130.9-319.9-311.2z" data-v-c31713d4=""></path> <path clip-path="url(#c)" d="m2294.4 806.7c0-185.3 130.9-311.2 317.4-311.2 96.3 0 195.1 38.3 255.7 114.8l-108.7 93.9c-32.1-37.1-79.1-64.2-140.8-64.2-96.4 0-160.6 67.9-160.6 165.5 0 98.8 66.7 168 161.8 168 64.3 0 112.4-29.6 140.8-61.7l109.9 97.6c-51.9 60.5-144.5 108.7-265.6 108.7-179-.2-309.9-126.2-309.9-311.4z" data-v-c31713d4=""></path> <path clip-path="url(#d)" d="m3071.9 742.4h265.6c-16-63-59.3-105-129.7-105-65.5.1-117.4 35.9-135.9 105zm422.4 116.2h-423.6c19.8 71.6 76.6 116.1 154.4 116.1 64.2 1.2 111.2-27.2 144.5-67.9l105 97.6c-51.9 65.5-139.6 113.6-260.6 113.6-176.6 0-310-123.5-310-312.5 0-182.8 127.2-310 298.9-310 176.6 0 295.2 128.4 295.2 305.1-.1 19.7-.1 48-3.8 58z" data-v-c31713d4=""></path> <path clip-path="url(#e)" d="m3592 383.5h161.8v724.6h-161.8z" data-v-c31713d4=""></path> <path clip-path="url(#f)" d="m3864.2 383.5h161.8v724.6h-161.8z" data-v-c31713d4=""></path> <path clip-path="url(#g)" d="m658.5 383.5v724.8h-176.5l-264.5-399.9v399.9h-172.5v-724.8h172.5l267.6 429.3v-429.3z" data-v-c31713d4=""></path> <path clip-path="url(#h)" d="m2026.3 718.1v389.9h161.8v-386.1c-3.1 1.7-35.7 20.4-78.1 20.4-36.5 0-71.9-16.1-83.7-24.2z" data-v-c31713d4=""></path> <path clip-path="url(#i)" d="m2143.5 340.1c75.9 121.8-35.6 172.9-60.5 183.9-23.9 10.5-36.8 35.1-36.8 57.8 0 35.1 28.5 63.6 63.6 63.6 59.2 0 112.4-88.2 112.4-155.7-.1-90-78.7-149.6-78.7-149.6z" data-v-c31713d4=""></path> <path clip-path="url(#j)" d="m2362.2 334.3c0-158.2-137.4-330.3-250.9-330.3-66.4 0-120.4 53.7-120.4 120.1 0 56.8 39.3 104.3 92.2 116.9 47.4 11.6 249.4 46.1 206.2 328.5 0 0 72.9-94.8 72.9-235.2z" data-v-c31713d4=""></path> <path clip-path="url(#k)" d="m1694.3 607.5c-22.4-256.4 167.3-330.4 277.2-330.4 81.4 0 118.2 50.5 118.2 101.5 0 70.2-72.6 118.5-135.2 92.1-76.9-32.6-218.2-48.9-260.2 136.8z" data-v-c31713d4=""></path></g></svg>